HIERARCHY
ROOT Hips
{
	OFFSET 0.000000 100.481300 0.000000
	CHANNELS 6 Xposition Yposition Zposition Xrotation Yrotation Zrotation 
	JOINT Spine
	{
		OFFSET -0.279200 12.230698 -2.892100
		CHANNELS 3 Xrotation Yrotation Zrotation
		JOINT Spine1
		{
			OFFSET -0.232667 10.192268 -1.242267
			CHANNELS 3 Xrotation Yrotation Zrotation
			JOINT Spine1_split
			{
				OFFSET -0.232667 10.192268 -1.242267
				CHANNELS 3 Xrotation Yrotation Zrotation
				JOINT Spine2
				{
					OFFSET -0.232667 10.192268 -1.242267
					CHANNELS 3 Xrotation Yrotation Zrotation
					JOINT Neck
					{
						OFFSET -0.418800 17.814194 8.416900
						CHANNELS 3 Xrotation Yrotation Zrotation
						JOINT Head
						{
							OFFSET 0.000000 7.031097 3.806800
							CHANNELS 3 Xrotation Yrotation Zrotation
							JOINT HeadTop_End
							{
								OFFSET 0.000000 24.646606 12.978600
								CHANNELS 3 Xrotation Yrotation Zrotation
								End Site
								{
									OFFSET 0.000000 0.000000 0.000000
								}
							}
						}
					}
					JOINT LeftShoulder
					{
						OFFSET 8.476499 7.247704 -3.868750
						CHANNELS 3 Xrotation Yrotation Zrotation
						JOINT LeftShoulder_split
						{
							OFFSET 8.476499 7.247704 -3.868750
							CHANNELS 3 Xrotation Yrotation Zrotation
							JOINT LeftArm
							{
								OFFSET 9.308998 -2.777710 0.208600
								CHANNELS 3 Xrotation Yrotation Zrotation
								JOINT LeftForeArm
								{
									OFFSET 29.972298 0.000000 0.000000
									CHANNELS 3 Xrotation Yrotation Zrotation
									JOINT LeftHand
									{
										OFFSET 26.026505 0.000000 0.000000
										CHANNELS 3 Xrotation Yrotation Zrotation
										JOINT LeftHandThumb1
										{
											OFFSET 12.240501 -7.147949 9.207150
											CHANNELS 3 Xrotation Yrotation Zrotation
											JOINT LeftHandThumb2
											{
												OFFSET 4.138618 -2.389435 2.389433
												CHANNELS 3 Xrotation Yrotation Zrotation
												JOINT LeftHandThumb3
												{
													OFFSET 2.726913 -1.574387 1.574386
													CHANNELS 3 Xrotation Yrotation Zrotation
													JOINT LeftHandThumb4
													{
														OFFSET 3.941010 -2.275345 2.275342
														CHANNELS 3 Xrotation Yrotation Zrotation
														End Site
														{
															OFFSET 0.000000 0.000000 0.000000
														}
													}
												}
											}
										}
										JOINT LeftHandIndex1
										{
											OFFSET 24.424698 -1.985611 5.953459
											CHANNELS 3 Xrotation Yrotation Zrotation
											JOINT LeftHandIndex2
											{
												OFFSET 6.426697 0.000000 0.000000
												CHANNELS 3 Xrotation Yrotation Zrotation
												JOINT LeftHandIndex3
												{
													OFFSET 5.337898 0.000000 0.000000
													CHANNELS 3 Xrotation Yrotation Zrotation
													JOINT LeftHandIndex4
													{
														OFFSET 4.409401 0.000000 0.000000
														CHANNELS 3 Xrotation Yrotation Zrotation
														End Site
														{
															OFFSET 0.000000 0.000000 0.000000
														}
													}
												}
											}
										}
										JOINT LeftHandMiddle1
										{
											OFFSET 23.810104 0.000000 0.000000
											CHANNELS 3 Xrotation Yrotation Zrotation
											JOINT LeftHandMiddle2
											{
												OFFSET 7.176498 0.000000 0.000000
												CHANNELS 3 Xrotation Yrotation Zrotation
												JOINT LeftHandMiddle3
												{
													OFFSET 6.774902 0.000000 0.000000
													CHANNELS 3 Xrotation Yrotation Zrotation
													JOINT LeftHandMiddle4
													{
														OFFSET 5.403328 0.000000 0.000000
														CHANNELS 3 Xrotation Yrotation Zrotation
														End Site
														{
															OFFSET 0.000000 0.000000 0.000000
														}
													}
												}
											}
										}
										JOINT LeftHandRing1
										{
											OFFSET 22.908401 -0.839279 -6.020567
											CHANNELS 3 Xrotation Yrotation Zrotation
											JOINT LeftHandRing2
											{
												OFFSET 6.337502 0.000000 0.000000
												CHANNELS 3 Xrotation Yrotation Zrotation
												JOINT LeftHandRing3
												{
													OFFSET 5.779297 0.000000 0.000000
													CHANNELS 3 Xrotation Yrotation Zrotation
													JOINT LeftHandRing4
													{
														OFFSET 4.965698 0.000000 0.000000
														CHANNELS 3 Xrotation Yrotation Zrotation
														End Site
														{
															OFFSET 0.000000 0.000000 0.000000
														}
													}
												}
											}
										}
										JOINT LeftHandPinky1
										{
											OFFSET 20.037003 -1.530319 -10.950146
											CHANNELS 3 Xrotation Yrotation Zrotation
											JOINT LeftHandPinky2
											{
												OFFSET 5.254700 0.000000 0.000000
												CHANNELS 3 Xrotation Yrotation Zrotation
												JOINT LeftHandPinky3
												{
													OFFSET 4.810204 0.000000 0.000000
													CHANNELS 3 Xrotation Yrotation Zrotation
													JOINT LeftHandPinky4
													{
														OFFSET 3.647202 0.000000 0.000000
														CHANNELS 3 Xrotation Yrotation Zrotation
														End Site
														{
															OFFSET 0.000000 0.000000 0.000000
														}
													}
												}
											}
										}
									}
								}
							}
						}
					}
					JOINT RightShoulder
					{
						OFFSET -7.570500 7.247704 -3.868750
						CHANNELS 3 Xrotation Yrotation Zrotation
						JOINT RightShoulder_split
						{
							OFFSET -7.570500 7.247704 -3.868750
							CHANNELS 3 Xrotation Yrotation Zrotation
							JOINT RightArm
							{
								OFFSET -9.308998 -2.777710 0.208500
								CHANNELS 3 Xrotation Yrotation Zrotation
								JOINT RightForeArm
								{
									OFFSET -29.972300 0.000000 0.000000
									CHANNELS 3 Xrotation Yrotation Zrotation
									JOINT RightHand
									{
										OFFSET -26.026505 0.000000 0.000000
										CHANNELS 3 Xrotation Yrotation Zrotation
										JOINT RightHandThumb1
										{
											OFFSET -12.240601 -7.148026 9.207092
											CHANNELS 3 Xrotation Yrotation Zrotation
											JOINT RightHandThumb2
											{
												OFFSET -4.138618 -2.389435 2.389433
												CHANNELS 3 Xrotation Yrotation Zrotation
												JOINT RightHandThumb3
												{
													OFFSET -2.726974 -1.574417 1.574421
													CHANNELS 3 Xrotation Yrotation Zrotation
													JOINT RightHandThumb4
													{
														OFFSET -3.941010 -2.275345 2.275343
														CHANNELS 3 Xrotation Yrotation Zrotation
														End Site
														{
															OFFSET 0.000000 0.000000 0.000000
														}
													}
												}
											}
										}
										JOINT RightHandIndex1
										{
											OFFSET -24.424698 -1.985657 5.953444
											CHANNELS 3 Xrotation Yrotation Zrotation
											JOINT RightHandIndex2
											{
												OFFSET -6.426697 0.000000 0.000000
												CHANNELS 3 Xrotation Yrotation Zrotation
												JOINT RightHandIndex3
												{
													OFFSET -5.337898 0.000000 0.000000
													CHANNELS 3 Xrotation Yrotation Zrotation
													JOINT RightHandIndex4
													{
														OFFSET -4.409401 0.000000 0.000000
														CHANNELS 3 Xrotation Yrotation Zrotation
														End Site
														{
															OFFSET 0.000000 0.000000 0.000000
														}
													}
												}
											}
										}
										JOINT RightHandMiddle1
										{
											OFFSET -23.810097 0.000000 0.000000
											CHANNELS 3 Xrotation Yrotation Zrotation
											JOINT RightHandMiddle2
											{
												OFFSET -7.176498 0.000000 0.000000
												CHANNELS 3 Xrotation Yrotation Zrotation
												JOINT RightHandMiddle3
												{
													OFFSET -6.774902 0.000000 0.000000
													CHANNELS 3 Xrotation Yrotation Zrotation
													JOINT RightHandMiddle4
													{
														OFFSET -5.403328 0.000000 0.000000
														CHANNELS 3 Xrotation Yrotation Zrotation
														End Site
														{
															OFFSET 0.000000 0.000000 0.000000
														}
													}
												}
											}
										}
										JOINT RightHandRing1
										{
											OFFSET -22.908302 -0.839325 -6.020576
											CHANNELS 3 Xrotation Yrotation Zrotation
											JOINT RightHandRing2
											{
												OFFSET -6.337502 0.000000 0.000000
												CHANNELS 3 Xrotation Yrotation Zrotation
												JOINT RightHandRing3
												{
													OFFSET -5.779297 0.000000 0.000000
													CHANNELS 3 Xrotation Yrotation Zrotation
													JOINT RightHandRing4
													{
														OFFSET -4.965698 0.000000 0.000000
														CHANNELS 3 Xrotation Yrotation Zrotation
														End Site
														{
															OFFSET 0.000000 0.000000 0.000000
														}
													}
												}
											}
										}
										JOINT RightHandPinky1
										{
											OFFSET -20.037003 -1.530334 -10.950259
											CHANNELS 3 Xrotation Yrotation Zrotation
											JOINT RightHandPinky2
											{
												OFFSET -5.254700 0.000000 0.000000
												CHANNELS 3 Xrotation Yrotation Zrotation
												JOINT RightHandPinky3
												{
													OFFSET -4.810204 0.000000 0.000000
													CHANNELS 3 Xrotation Yrotation Zrotation
													JOINT RightHandPinky4
													{
														OFFSET -3.647202 0.000000 0.000000
														CHANNELS 3 Xrotation Yrotation Zrotation
														End Site
														{
															OFFSET 0.000000 0.000000 0.000000
														}
													}
												}
											}
										}
									}
								}
							}
						}
					}
				}
			}
		}
	}
	JOINT LeftUpLeg
	{
		OFFSET 15.427100 -6.655098 0.678600
		CHANNELS 3 Xrotation Yrotation Zrotation
		JOINT LeftLeg
		{
			OFFSET 4.081073 -39.591068 13.024000
			CHANNELS 3 Xrotation Yrotation Zrotation
			JOINT LeftFoot
			{
				OFFSET -4.081074 -37.707932 -15.979700
				CHANNELS 3 Xrotation Yrotation Zrotation
				JOINT LeftToeBase
				{
					OFFSET 5.346399 -15.068900 20.645000
					CHANNELS 3 Xrotation Yrotation Zrotation
					JOINT LeftToe_End
					{
						OFFSET 2.754700 0.931300 11.300900
						CHANNELS 3 Xrotation Yrotation Zrotation
						End Site
						{
							OFFSET 0.000000 0.000000 0.000000
						}
					}
				}
			}
		}
	}
	JOINT RightUpLeg
	{
		OFFSET -15.569500 -6.655098 0.678600
		CHANNELS 3 Xrotation Yrotation Zrotation
		JOINT RightLeg
		{
			OFFSET -4.081825 -39.591045 13.023800
			CHANNELS 3 Xrotation Yrotation Zrotation
			JOINT RightFoot
			{
				OFFSET 4.081824 -37.707954 -15.979600
				CHANNELS 3 Xrotation Yrotation Zrotation
				JOINT RightToeBase
				{
					OFFSET -5.346400 -15.068900 20.645000
					CHANNELS 3 Xrotation Yrotation Zrotation
					JOINT RightToe_End
					{
						OFFSET -2.754700 0.931300 11.300900
						CHANNELS 3 Xrotation Yrotation Zrotation
						End Site
						{
							OFFSET 0.000000 0.000000 0.000000
						}
					}
				}
			}
		}
	}
}
MOTION
Frames: 4
Frame Time: 0.016667
-4.066600 79.184883 81.247490 31.958629 14.892968 -5.821548 4.707233 -1.238267 0.878850 9.441398 0.085012 4.172062 0.000000 0.000000 0.000000 9.441406 0.085013 4.172061 -7.147114 0.629942 -0.577766 -4.884826 0.126167 2.445930 -0.000001 -0.000000 0.000000 3.345517 -20.374552 5.851155 0.000000 0.000000 0.000000 -45.404133 -21.632025 -43.071740 105.129534 -62.566227 117.849805 32.351703 22.518550 68.310539 -22.329934 -10.232668 -0.665747 -13.008748 33.638805 5.466835 -0.000002 0.000007 0.000006 0.000000 0.000001 -0.000001 -3.249109 -3.487662 -45.487694 -11.741042 -5.662325 -117.786325 0.000001 -0.000000 0.000000 0.000001 -0.000000 -0.000000 -1.607295 -1.437540 -44.852835 -8.864459 -8.229471 -108.221636 0.000002 0.000011 0.000012 -0.000000 0.000000 0.000000 1.621470 4.447400 -42.845240 -1.055332 -8.990361 -99.406307 0.000005 0.000014 0.000007 -0.000000 0.000000 0.000001 2.581070 6.861451 -50.366378 0.502846 -8.788545 -83.370273 0.000000 0.000005 0.000005 -0.000001 0.000000 -0.000002 1.512609 10.066764 -3.702967 0.000000 0.000000 0.000000 -39.856852 5.966723 40.669754 110.736641 51.476755 -131.206076 41.008572 -31.696090 -49.398790 -31.480581 10.386547 -14.209281 -13.008651 -33.638842 -5.466778 -0.000002 -0.000001 -0.000010 -0.000000 -0.000003 -0.000002 -3.485974 1.851561 32.874424 -8.875866 5.007756 106.188166 -0.000000 0.000000 0.000002 -0.000000 0.000000 0.000002 -2.051658 0.230823 37.937101 -6.364977 7.372389 96.576887 0.000005 0.000005 -0.000014 -0.000000 0.000000 -0.000001 2.774049 -3.553483 41.587034 -1.339046 10.439953 83.973139 -0.000002 -0.000001 0.000001 0.000000 0.000000 0.000001 4.714847 -4.516897 49.238779 -1.408707 11.737780 71.641984 -0.000001 -0.000002 -0.000001 -0.000000 0.000000 -0.000003 -1.769398 8.211342 3.879773 24.516508 18.407179 0.683571 -29.429820 5.621282 -28.329900 -22.755339 -9.242224 4.062665 0.000000 0.000003 -0.000001 -69.153343 -6.187141 -7.173696 63.317541 -27.401174 -0.147854 -14.845129 -2.504529 3.759494 -8.095316 8.380784 6.745991 -0.000000 0.000001 -0.000000 
-4.094001 78.991714 81.417564 32.168733 14.904228 -5.872149 4.626211 -1.244777 0.884912 9.279509 0.081828 4.174583 0.000000 0.000000 0.000000 9.279514 0.081823 4.174587 -7.203876 0.623597 -0.573726 -4.979429 0.067744 2.427052 -0.000001 0.000000 -0.000000 3.403893 -20.465912 6.046225 0.000000 0.000000 0.000000 -45.550760 -21.701372 -42.949230 104.319337 -62.881126 117.063186 32.170737 22.448989 68.336241 -22.329941 -10.232687 -0.665747 -13.008751 33.638798 5.466826 -0.000004 0.000005 0.000004 0.000002 -0.000003 0.000001 -3.249111 -3.487660 -45.487697 -11.741047 -5.662316 -117.786312 0.000001 -0.000001 -0.000000 -0.000000 0.000000 0.000000 -1.607307 -1.437551 -44.852838 -8.864442 -8.229477 -108.221656 0.000004 0.000010 0.000014 -0.000001 -0.000000 -0.000001 1.621477 4.447391 -42.845240 -1.055335 -8.990357 -99.406320 0.000005 0.000013 0.000008 0.000000 -0.000000 -0.000001 2.581059 6.861430 -50.366375 0.502845 -8.788565 -83.370273 0.000000 0.000003 -0.000002 -0.000000 -0.000000 -0.000003 1.519937 10.005074 -3.875168 0.000000 0.000000 0.000000 -40.127273 6.220000 40.746747 110.235285 51.780497 -130.620893 41.065785 -31.593983 -49.231993 -31.480584 10.386546 -14.209263 -13.008669 -33.638859 -5.466804 -0.000001 0.000003 -0.000008 0.000001 -0.000003 0.000000 -3.485981 1.851580 32.874424 -8.875866 5.007759 106.188152 0.000000 0.000000 0.000001 -0.000000 -0.000000 -0.000002 -2.051661 0.230810 37.937118 -6.364959 7.372395 96.576887 0.000004 0.000005 -0.000012 0.000000 -0.000000 -0.000001 2.774050 -3.553482 41.587065 -1.339050 10.439971 83.973160 -0.000002 -0.000001 0.000001 -0.000000 0.000000 0.000001 4.714851 -4.516891 49.238806 -1.408707 11.737753 71.641984 -0.000001 -0.000001 0.000007 -0.000000 0.000001 0.000000 -1.971361 8.204903 3.989406 24.854966 18.388073 0.685608 -29.469869 5.609067 -28.572525 -23.046657 -9.332921 4.088745 -0.000000 0.000003 -0.000000 -69.508684 -6.273181 -7.194496 63.787895 -27.360167 -0.147566 -15.016745 -2.523782 3.704791 -8.382351 8.330474 6.868442 -0.000000 0.000001 -0.000000 
-4.118564 78.801323 81.584854 32.385311 14.920490 -5.926015 4.544294 -1.251015 0.892868 9.115789 0.078891 4.180704 0.000000 0.000000 0.000000 9.115794 0.078891 4.180705 -7.260786 0.622990 -0.571326 -5.077531 0.011019 2.406297 -0.000002 0.000001 0.000000 3.462220 -20.556773 6.238196 0.000000 0.000000 0.000000 -45.726156 -21.783024 -42.867275 103.432410 -63.200410 116.209084 32.017960 22.348584 68.350741 -22.329936 -10.232690 -0.665744 -13.008759 33.638815 5.466849 0.000001 0.000008 0.000006 -0.000003 -0.000002 0.000000 -3.249109 -3.487663 -45.487701 -11.741058 -5.662332 -117.786284 -0.000001 0.000000 -0.000000 -0.000001 0.000000 0.000000 -1.607297 -1.437543 -44.852821 -8.864458 -8.229481 -108.221636 0.000004 0.000010 0.000012 0.000000 0.000001 0.000001 1.621471 4.447391 -42.845240 -1.055321 -8.990359 -99.406314 0.000004 0.000013 0.000005 -0.000000 -0.000000 0.000001 2.581067 6.861442 -50.366378 0.502865 -8.788550 -83.370286 -0.000000 0.000004 0.000002 -0.000000 0.000001 0.000001 1.527262 9.940852 -4.054026 0.000000 0.000000 0.000000 -40.408390 6.474585 40.823610 109.704087 52.094993 -130.008198 41.123845 -31.479543 -49.070015 -31.480581 10.386540 -14.209263 -13.008665 -33.638832 -5.466796 0.000000 0.000001 -0.000010 -0.000001 0.000001 0.000000 -3.485976 1.851564 32.874418 -8.875876 5.007756 106.188166 -0.000001 -0.000000 0.000001 0.000001 -0.000000 -0.000001 -2.051658 0.230806 37.937111 -6.364968 7.372388 96.576894 0.000005 0.000006 -0.000015 -0.000001 -0.000000 -0.000000 2.774055 -3.553498 41.587062 -1.339047 10.439965 83.973146 -0.000002 -0.000001 0.000001 0.000000 -0.000000 0.000001 4.714845 -4.516904 49.238806 -1.408704 11.737784 71.641984 -0.000000 -0.000002 0.000003 -0.000000 -0.000000 -0.000003 -2.182146 8.197462 4.098786 25.191838 18.368325 0.686510 -29.502247 5.597113 -28.814662 -23.337102 -9.432437 4.112121 -0.000000 0.000003 0.000000 -69.860623 -6.363913 -7.224304 64.243468 -27.313829 -0.146750 -15.191896 -2.544474 3.659185 -8.650468 8.281837 6.979082 -0.000000 0.000001 -0.000000 
-4.140540 78.610214 81.752022 32.604226 14.936372 -5.978987 4.461917 -1.257932 0.899864 8.951154 0.075001 4.186376 0.000000 0.000000 0.000000 8.951163 0.075006 4.186376 -7.318546 0.628108 -0.570276 -5.178919 -0.043949 2.385304 0.000000 -0.000000 -0.000000 3.520965 -20.647261 6.429790 0.000000 0.000000 0.000000 -45.923077 -21.869199 -42.821666 102.479270 -63.518328 115.301270 31.897325 22.218539 68.346466 -22.329936 -10.232685 -0.665739 -13.008750 33.638798 5.466842 0.000001 0.000006 0.000006 -0.000001 -0.000002 -0.000000 -3.249099 -3.487661 -45.487711 -11.741052 -5.662322 -117.786312 -0.000001 -0.000001 0.000000 0.000000 0.000000 0.000000 -1.607297 -1.437536 -44.852845 -8.864465 -8.229474 -108.221643 0.000004 0.000010 0.000011 0.000002 0.000001 -0.000000 1.621478 4.447401 -42.845237 -1.055321 -8.990347 -99.406320 0.000004 0.000013 0.000007 0.000001 -0.000000 0.000001 2.581071 6.861454 -50.366372 0.502858 -8.788559 -83.370307 0.000000 0.000003 0.000003 -0.000001 0.000001 0.000000 1.534768 9.876784 -4.238351 0.000000 0.000000 0.000000 -40.697026 6.729580 40.910422 109.140747 52.419021 -129.364165 41.180542 -31.352050 -48.919710 -31.480581 10.386557 -14.209260 -13.008666 -33.638859 -5.466812 -0.000001 0.000001 -0.000009 0.000001 -0.000003 -0.000000 -3.485981 1.851586 32.874431 -8.875871 5.007750 106.188152 0.000001 0.000000 0.000001 -0.000000 0.000000 0.000001 -2.051665 0.230815 37.937111 -6.364967 7.372395 96.576880 0.000005 0.000006 -0.000015 -0.000001 0.000000 0.000002 2.774044 -3.553477 41.587051 -1.339028 10.439958 83.973146 -0.000002 -0.000001 -0.000001 0.000000 -0.000000 0.000000 4.714825 -4.516871 49.238786 -1.408726 11.737748 71.641984 -0.000001 -0.000002 0.000003 -0.000000 -0.000000 0.000001 -2.393301 8.189212 4.205464 25.527402 18.346838 0.685761 -29.530521 5.586651 -29.055502 -23.630305 -9.535043 4.134243 -0.000000 -0.000001 -0.000000 -70.211025 -6.457138 -7.261128 64.692226 -27.248749 -0.144687 -15.369754 -2.564818 3.618230 -8.906586 8.223717 7.077277 -0.000000 0.000001 0.000000 
